name ../VV_Laxity/vv_75.mot
datacolumns  10
datarows 35
range   7.00000000 7.34000000
cursor 1.0 1.0 0.0
keys m_key
wrap
enforce_loops no
enforce_constraints no
calc_derivatives -1.000000
event_color 0.000000 0.000000 0.000000
endheader
            time femur_r_force_vx femur_r_force_vy femur_r_force_vz femur_r_force_px femur_r_force_py femur_r_force_pz femur_r_torque_x femur_r_torque_y femur_r_torque_z 
      7.00000000       0.00000000       0.00000000       0.00000000      -0.06780825      -0.46560544       0.00000000      -2.32566060       8.67948351       0.00000000 
      7.01000000       0.00000000       0.00000000       0.00000000      -0.06780825      -0.46560544       0.00000000      -2.32954423       8.69397742       0.00000000 
      7.02000000       0.00000000       0.00000000       0.00000000      -0.06780825      -0.46560544       0.00000000      -2.33340211       8.70837524       0.00000000 
      7.03000000       0.00000000       0.00000000       0.00000000      -0.06780825      -0.46560544       0.00000000      -2.33723415       8.72267661       0.00000000 
      7.04000000       0.00000000       0.00000000       0.00000000      -0.06780825      -0.46560544       0.00000000      -2.34104026       8.73688118       0.00000000 
      7.05000000       0.00000000       0.00000000       0.00000000      -0.06780825      -0.46560544       0.00000000      -2.34482032       8.75098858       0.00000000 
      7.06000000       0.00000000       0.00000000       0.00000000      -0.06780825      -0.46560544       0.00000000      -2.34857426       8.76499847       0.00000000 
      7.07000000       0.00000000       0.00000000       0.00000000      -0.06780825      -0.46560544       0.00000000      -2.35230198       8.77891050       0.00000000 
      7.08000000       0.00000000       0.00000000       0.00000000      -0.06780825      -0.46560544       0.00000000      -2.35600338       8.79272432       0.00000000 
      7.09000000       0.00000000       0.00000000       0.00000000      -0.06780825      -0.46560544       0.00000000      -2.35967838       8.80643960       0.00000000 
      7.10000000       0.00000000       0.00000000       0.00000000      -0.06780825      -0.46560544       0.00000000      -2.36332688       8.82005599       0.00000000 
      7.11000000       0.00000000       0.00000000       0.00000000      -0.06780825      -0.46560544       0.00000000      -2.36694879       8.83357314       0.00000000 
      7.12000000       0.00000000       0.00000000       0.00000000      -0.06780825      -0.46560544       0.00000000      -2.37054402       8.84699074       0.00000000 
      7.13000000       0.00000000       0.00000000       0.00000000      -0.06780825      -0.46560544       0.00000000      -2.37411249       8.86030843       0.00000000 
      7.14000000       0.00000000       0.00000000       0.00000000      -0.06780825      -0.46560544       0.00000000      -2.37765410       8.87352589       0.00000000 
      7.15000000       0.00000000       0.00000000       0.00000000      -0.06780825      -0.46560544       0.00000000      -2.38116876       8.88664280       0.00000000 
      7.16000000       0.00000000       0.00000000       0.00000000      -0.06780825      -0.46560544       0.00000000      -2.38465639       8.89965882       0.00000000 
      7.17000000       0.00000000       0.00000000       0.00000000      -0.06780825      -0.46560544       0.00000000      -2.38811691       8.91257364       0.00000000 
      7.18000000       0.00000000       0.00000000       0.00000000      -0.06780825      -0.46560544       0.00000000      -2.39155022       8.92538692       0.00000000 
      7.19000000       0.00000000       0.00000000       0.00000000      -0.06780825      -0.46560544       0.00000000      -2.39495624       8.93809836       0.00000000 
      7.20000000       0.00000000       0.00000000       0.00000000      -0.06780825      -0.46560544       0.00000000      -2.39833488       8.95070763       0.00000000 
      7.21000000       0.00000000       0.00000000       0.00000000      -0.06780825      -0.46560544       0.00000000      -2.40168607       8.96321443       0.00000000 
      7.22000000       0.00000000       0.00000000       0.00000000      -0.06780825      -0.46560544       0.00000000      -2.40500971       8.97561843       0.00000000 
      7.23000000       0.00000000       0.00000000       0.00000000      -0.06780825      -0.46560544       0.00000000      -2.40830573       8.98791934       0.00000000 
      7.24000000       0.00000000       0.00000000       0.00000000      -0.06780825      -0.46560544       0.00000000      -2.41157404       9.00011685       0.00000000 
      7.25000000       0.00000000       0.00000000       0.00000000      -0.06780825      -0.46560544       0.00000000      -2.41481457       9.01221065       0.00000000 
      7.26000000       0.00000000       0.00000000       0.00000000      -0.06780825      -0.46560544       0.00000000      -2.41802722       9.02420044       0.00000000 
      7.27000000       0.00000000       0.00000000       0.00000000      -0.06780825      -0.46560544       0.00000000      -2.42121193       9.03608593       0.00000000 
      7.28000000       0.00000000       0.00000000       0.00000000      -0.06780825      -0.46560544       0.00000000      -2.42436861       9.04786682       0.00000000 
      7.29000000       0.00000000       0.00000000       0.00000000      -0.06780825      -0.46560544       0.00000000      -2.42749718       9.05954282       0.00000000 
      7.30000000       0.00000000       0.00000000       0.00000000      -0.06780825      -0.46560544       0.00000000      -2.43059757       9.07111363       0.00000000 
      7.31000000       0.00000000       0.00000000       0.00000000      -0.06780825      -0.46560544       0.00000000      -2.43366970       9.08257897       0.00000000 
      7.32000000       0.00000000       0.00000000       0.00000000      -0.06780825      -0.46560544       0.00000000      -2.43671349       9.09393855       0.00000000 
      7.33000000       0.00000000       0.00000000       0.00000000      -0.06780825      -0.46560544       0.00000000      -2.43972887       9.10519209       0.00000000 
      7.34000000       0.00000000       0.00000000       0.00000000      -0.06780825      -0.46560544       0.00000000      -2.44271576       9.11633931       0.00000000 
